<svg width="1405" height="1405" viewBox="0 0 1405 1405" fill="none" xmlns="http://www.w3.org/2000/svg">
<g clip-path="url(#clip0_531_2004)">
<rect width="1404.54" height="1404.54" fill="white"/>
<path d="M1025.49 1205.21C993.24 1205.21 967.007 1178.95 967.007 1146.7C967.007 1114.46 993.24 1088.22 1025.49 1088.22C1057.74 1088.22 1083.98 1114.45 1083.98 1146.7C1083.98 1178.96 1057.74 1205.21 1025.49 1205.21ZM379.047 1205.21C346.798 1205.21 320.566 1178.95 320.566 1146.7C320.566 1114.46 346.793 1088.22 379.047 1088.22C411.296 1088.22 437.528 1114.45 437.528 1146.7C437.528 1178.96 411.301 1205.21 379.047 1205.21ZM1046.47 852.906L1163.35 650.464C1166.57 644.877 1167.44 638.242 1165.77 632.014C1164.1 625.787 1160.03 620.476 1154.45 617.246C1148.86 614.03 1142.23 613.161 1136 614.83C1129.78 616.498 1124.46 620.568 1121.23 626.147L1002.89 831.148C912.375 789.848 810.731 766.838 702.268 766.838C593.805 766.838 492.161 789.848 401.656 831.148L283.302 626.147C280.071 620.568 274.76 616.498 268.533 614.83C262.306 613.161 255.672 614.03 250.084 617.246C244.501 620.473 240.427 625.784 238.758 632.013C237.089 638.241 237.961 644.878 241.183 650.464L358.071 852.906C157.358 962.07 20.0825 1165.27 0 1405.33H1404.54C1384.44 1165.27 1247.16 962.07 1046.47 852.9" fill="#3DDB85"/>
</g>
<defs>
<clipPath id="clip0_531_2004">
<rect width="1404.54" height="1404.54" fill="white"/>
</clipPath>
</defs>
</svg>
